<svg id="usmapsvg" viewBox="0 0 960 600" xmlns="http://www.w3.org/2000/svg"><path id="AL" d="M606.9 233.7L635.3 234L638.2 247.9L642.2 268.5L644.1 273L645.8 275.6L645.1 277.2L647 278.2L644.2 280.2L644.3 282.3L642.9 285.1L644.5 289.9L643.4 294.2L645.1 298.7L637.1 298.8L602.9 298.8L602.4 300.9L606.1 304L605.4 306.7L606.7 308L604.3 310.4L602.1 311L598 308.3L597.5 304.3L596.3 303.8L594.8 306.9L594.2 309.8L590 309L588.8 284.2L592.5 253.3L594.8 235.5L593.2 233.8L606.9 233.7Z"/><path id="AK" d="M162.9 490L163.7 490.2L162.7 489.7ZM162.1 491L162.4 490L162.1 491ZM158.5 494.2L159.2 494.3L159.5 493.7L158.8 493.6L158.2 493.9ZM156.5 493.9L157.9 493.8L158.2 493.2L159.6 492.5L160.1 491.7L161.1 490.8L161.7 490.2L161.7 488.9L160.6 488.7L160.4 489.3L159.4 489.7L158.7 489.7L159.3 489.4L159.4 488.6L157.9 489.5L157.7 490.3L156.9 490.3L158.1 491L157.2 491.6L157.1 492.4L156.4 492.6L156.7 493.3ZM156 491.4L156.7 491.2L157.5 491.3L156.4 491ZM155.5 495.8L157.3 496L158.1 496L158.6 495.4L159.6 494.9L158.3 494.5L157.1 494.4L156.3 494.2L156.1 495L155.5 495.8ZM154.8 494.3L153.9 495.1L154.7 495.5L156 495.3L156.1 494.7L155.4 494L155.3 493.1L154.5 493L154.3 493.9ZM153.2 493.7L151.4 495L150.7 495.4L150.6 496.5L149.8 497.2L150.7 497.8L151.8 497.3L152.5 497.3L153.2 495.1L153.2 493.7ZM152.9 499.9L154 499.7L155.5 498.6L154.7 498.4L155.4 498L155.6 497.2L154.9 497L153.6 496.1L153.4 497.1L152.9 498.3L152.7 499.5L152.1 500.5L152.9 499.9ZM149.3 497.1L150.2 496.5L149.3 496L149.4 496.6ZM147.9 499.9L148.9 499.8L150.4 499.7L151.7 499.5L152.3 499.1L151.9 498.5L152.6 497.6L151.7 497.5L150.2 498.2L150.2 497.5L149.2 497.3L148.1 498L147.6 498.7L147 499.4L147.6 500.1ZM113.3 506.2L112 505.4L110.8 504.9L112.2 505.9L112.9 506.5ZM111.8 507.5L111.6 506.8L111.2 506.1L110.5 506.3L111.1 507.1L111.8 507.5ZM111.1 538.4L113.1 538.1L114 538.2L115.2 538.2L116.5 538.1L117.3 538.1L118 537.9L119.4 537.6L121.2 537.5L122.9 537.8L124.8 538.1L125.6 538L127.2 537.7L128.3 537.3L129.3 537.1L130.5 536.9L131.4 536.6L132.1 536.6L132.8 536.5L132.8 506.6L134.3 506.3L136 506.2L137 506.7L138.9 506.8L138.6 505.9L140.2 505.3L143.7 503.2L144.2 502.1L144.8 502.4L146.2 502.9L146.9 502.9L147.3 503.9L148 504.4L149 504.5L150.5 505L151.9 504.2L152.1 503.3L153 503.2L154 502.5L154.4 501.9L155.7 501.5L157.8 499.7L158.8 498.7L159.8 497.6L160.8 496.7L161.2 495.6L162 495.4L162.1 494.7L162.9 494.8L164.5 494.1L165.5 494L166.5 493.6L167.7 493.2L167.5 492.1L167.6 491.5L168 490.5L166.9 489.3L165.8 488.7L165.1 488.9L164.8 489.6L165.2 490.6L164.3 490.2L163.4 490.4L162.1 491.1L162.6 491.8L161.7 491.6L161 491.5L161.3 492.3L160.6 492.3L159.9 493L159.9 493.9L160.6 495L159.1 495.5L158.4 496.1L156.7 496.6L156.8 497.8L156.2 498L155.8 498.7L155 499.4L153.3 499.9L151.8 500.8L151.1 503L150.9 502.1L151.6 501.2L151.8 500.3L151.1 499.9L150.6 500.5L149.1 500.4L149.1 501.2L148.5 501.8L146 502.3L146.9 501.9L147.8 501.4L148.7 500.4L147.6 500.1L146.9 500.3L146 500.2L145.2 500.5L143.8 501.1L142.7 501.6L142 502.5L140.4 502.8L139.5 503.2L137.9 503.6L136.8 504L137.5 504.6L137.6 505.6L136.6 505.1L135 504.6L133 504.8L131.4 505.2L130.5 505.4L129.7 505.7L127.9 505.9L126.8 505.9L124.4 505.7L123.5 505.6L122.5 506L121.1 506.3L120.5 507L119.6 507L117.6 507.1L115.7 506.9L114.9 506.4L114.9 507.2L117 507.5L116 507.6L115 508L114.3 508.9L113 508.6L111.2 508.5L110.3 508.1L110.2 508.8L109.3 508.2L110 508L110.6 507L109.7 506.7L110.5 505.6L109.6 505.5L108.4 505.4L107 505.5L106.3 505.3L105.3 505.2L104.2 504.7L103.2 504.1L102.1 503.8L100.8 503.1L99.8 503.1L98.9 502.9L97.7 503.2L98 503.8L98.8 503.9L99.4 504.1L100.4 504.5L99.2 504.4L98.1 504.7L98.6 505.7L99.4 506.3L100 507.3L100.6 508.1L102.7 508.9L103.9 508.5L104.8 508.9L103.8 509.3L102.5 509.6L101.7 509.6L100.7 509.4L99.3 508.8L98.2 508.3L97.3 507.8L96.6 507.2L95.3 506.2L95.3 505.3L94.3 505.2L93.3 504.4L92.5 504.2L90.8 503.6L90.6 502.6L92 502.6L93.1 502.3L93 501.5L92.2 501.2L91.5 501.1L91.2 500.4L89.7 499.4L89.1 499.4L88 499.2L86.9 498.7L86.2 498.5L85.7 497.8L84.7 497.8L84.1 497.5L83.7 496.8L83 496L82 495.8L81.1 495.5L80.4 495.6L79.4 494.7L78.7 494.9L78 494.3L77.3 494.3L77.7 493.7L76.8 492.7L74 492.4L73.2 491.5L73.1 492.3L71.9 492.1L70.7 491.5L70.1 491.4L69.2 491.3L68.1 490.7L67.2 490.8L66.9 491.6L66.6 490.9L65.4 489.8L64.1 489.8L63.5 490.5L63.5 489.6L62.9 489.4L61.8 489.9L61.2 489L61.9 488.8L61.3 488.8L60.5 488.4L58.9 488.4L58.1 488.1L57.2 487.6L56.5 487.7L56.3 488.3L56.9 488.5L57.4 489.2L58.1 489.3L59.5 489.7L60.7 489.7L61.5 489.6L62.1 490.2L62.8 490.2L63.7 491L64.8 491.8L66.2 492.4L67.9 492.7L69.2 492.8L69 492.2L70.4 492.4L71.1 492L70.3 492.6L70.8 493.6L71.5 494.1L72.5 494.5L74.2 494.9L75.3 495.5L75.9 495.3L76.3 496.1L77.2 496.8L78.4 497.3L79.4 498L80.1 500.8L81.4 501.5L78.3 501.2L77.3 501.3L76.6 501.8L75.9 502L75.6 501.4L76.2 500.7L75.5 500.4L73.9 501.6L73.2 502.2L72.6 501.8L71.8 502L71 502.6L69.3 502L67.7 501.6L66.4 501L65.8 501.3L66.1 502.6L65.7 503.6L66.5 504L65.9 504.8L65.3 505.2L64.8 505.9L64 505.6L63.2 505.5L61.9 505.1L60.3 504.9L59.4 505L58.7 505.2L58 505.8L57 506.5L56.1 506.7L55.1 507.5L55.8 507.8L55.9 508.5L55 509.3L54.1 509.2L53.4 509.8L53.1 510.6L52.5 510.4L53.1 510.9L52.5 511.4L53.6 511.4L53.6 512L55.9 513.7L56.6 514L56.4 514.6L57.2 515.5L59.1 516L60 515.9L61.4 515.3L62.3 515.4L63.5 515.9L64.7 516.8L65.4 516.8L67 516.6L68.4 516.8L69.5 517.7L69 518.7L68 519.7L69.4 520.4L68.3 521.3L67.5 520.8L66.7 520.9L65.9 520.6L65.1 520.6L63.9 520.1L63.1 519.4L62.9 520L62.3 520.1L61.6 519.9L60.5 520.2L58.2 520.2L56.6 519.8L56 519.8L54.7 520L52.2 520.2L51.5 520.4L51.5 521.2L50.6 521.6L51.3 522.2L50.3 522.7L49.5 522.8L48.1 522.9L47.3 523.2L46.2 523.5L47.9 524.2L50.1 525L51.7 525.4L52.7 525.2L53.6 525.1L53.2 525.8L55.4 526.3L57.9 526.7L59.3 526.7L60 526.6L59.6 526L59.5 525.4L60.8 525.1L61.9 525L63.2 525.1L64.4 524.9L65.1 525L66.1 524.9L67 525.6L67.7 525.6L68.4 525.9L67.1 526.1L65.9 525.9L65 527L64 527.2L65.6 527.3L65.9 526.6L67 526.2L66 527.1L66.5 528L64.8 528L63.6 528L62.7 528L60 528.4L59.2 529.7L58.5 530L57.5 530.3L55.4 531.1L54.4 531.4L53.5 531.5L52 532L50.6 532.3L51.6 532.5L52.1 534L54.9 534L58.4 534.2L59.3 534.4L60.7 534.8L62 535.6L62.3 536.4L62.9 537L64.1 537.5L66.1 538.6L67.5 538.4L69.3 538.7L70.4 539.1L73.1 540.1L74.1 540.2L75.3 540.2L76.3 540.1L78.3 540.3L80.3 540.7L82.2 541.7L83 541.9L86.1 541.3L85.3 540.7L86.4 540.3L87.2 540.9L87.9 541.3L89.4 540.8L90.1 540.3L91.4 540.4L92.8 540.4L93.6 540.6L95.7 540.4L96.8 540.3L96.3 539.5L98.2 539.3L100.2 538.8L101.6 539.2L102.9 539.2L103.6 539L104.4 539.2L105.7 539.3L106.6 539.2L107.9 538.9L109.3 538.6L110.5 538.6ZM94.6 499.3L93.5 499.4L94.3 500.2L95 500.2L95.5 501L96 500.3L97.3 500.2L96.1 499.6L94.6 499.3ZM91.3 497.7L92.2 498.1L91.4 498.2L92.1 498.8L92.9 498.5L92.9 499.1L93.6 499.2L94.2 499L95.3 499.2L96.1 498.8L96.1 497.9L97.1 498L96.4 497.4L95.2 497.6L95.3 496.9L93.7 496.2L92.8 496.2L91.7 495.5L91 495.9L90.2 495.5L89.5 496L89.5 496.6L88.8 496.9L89.2 497.6L90.5 498.1L91.3 498.1ZM89.5 494.7L88.8 494.1L89.5 494.7ZM86 492.6L86.3 491.9L85.5 491.9L86 492.6ZM72.4 490.5L72.2 489.8L71.2 489.3L71.6 490.1L72.4 490.5ZM70.3 490.7L70.9 490.7L70.3 490L69.5 490L69.3 490.6L70.3 490.7ZM64.3 517.2L63.6 517.2L64.3 517.2ZM63 488L63.7 487.8L63.1 487.6ZM53.6 486.9L52.7 486.5L52.9 487.1L53.6 486.9ZM51.6 506.8L52.4 506.9L53.2 506.7L53.9 505.6L52.8 505.1L51.4 505.1L50.8 505.1L49.6 505.6L48.5 505.8L49.8 506.3L50.4 506.6L51 506.6L51.6 506.8ZM51.6 486.4L51.1 485.6L52.4 485.9L51 485.2L50 484.6L49.2 484.6L48.6 484.3L47.6 484L48.1 484.6L49.3 484.8L49.5 485.5L50.2 485.3L49.5 485.6L50.7 486.5L51.6 486.4ZM43.9 483.7L45.1 484.3L46.4 485L46.9 484.4L45.5 484L44.8 483.3L43.9 483.7ZM40.8 482.9L40.1 482.5L40.8 482.9ZM34.4 517.5L37 517L38.4 517.4L39.1 517.4L39.7 517.2L41.1 516.6L43.2 516.3L44.2 516.1L42.9 515.8L42 515.7L41.2 515L40.5 515.4L39.8 515.7L38.8 516.1L37.2 516.5L36.5 516.5L35.3 516.2L34.4 516.4L34.4 517.5ZM28.4 480.5L30 480.4L28.6 480.1ZM26.2 480.9L27.3 481L26.6 480.7L24.8 480L24.1 480.1L25.1 480.3L26.2 480.9ZM19.3 479.5L18.2 478.8L18.3 479.9L19.3 479.5ZM17.1 479.8L17.2 479.1L17.1 479.8ZM14 479.7L15 479.3L14 479.7ZM-14.7 483.2L-15.3 483L-20.5 482.4L-19.7 483L-14.7 483.2Z"/><path id="AZ" d="M254.5 201.2L254.4 293.3L221.5 293.3L202.5 287.3L160.7 274.5L162.2 270.8L165.4 270.2L166.3 268.8L165.4 265.7L163.2 265.7L162.2 259.6L165.4 257.3L165.9 254.9L165.3 251.1L167.2 248.2L169.8 247.1L171.8 245L168.6 242.7L166.3 238.4L163.7 235.8L163.7 233.7L164.6 231.5L164.3 228.5L163 225.3L162 215.8L167.9 215.2L169.9 217.2L171.5 217.1L173.2 214.3L173.2 201.2L230.9 201.1L254.5 201.2Z"/><path id="AR" d="M491.3 209.3L561.5 209.4L562.9 212.5L560.4 214.5L557.8 217.5L568.3 217.5L567.8 220.5L565.4 221.4L564.9 223.9L561.8 226.6L562.1 230.5L560.5 233.3L558.9 233.8L559.9 235.2L557.3 236.5L556.1 239.2L554.4 239.9L554.7 243.1L551.8 244L551.9 245.1L548.5 247.8L549.5 249.5L546.5 252.1L543.9 257.1L546.8 259.2L545.4 260.6L546.3 264L545 266.2L505.3 265.9L498.3 265.9L498.3 257.3L496 256.6L492.8 257.4L491.1 255.9L492 227.3L488.9 209.3L491.3 209.3Z"/><path id="CA" d="M23.9 119.9L37.8 119.8L59.6 120.1L76.4 120.1L76.5 148.2L76.4 168.7L97.4 183.3L117.1 197.7L132.7 209.3L143.9 218L163.7 233.7L163.7 235.8L166.3 238.4L168.6 242.7L171.8 245L169.8 247.1L167.2 248.2L165.3 251.1L165.9 254.9L165.4 257.3L162.2 259.6L163.2 265.7L165.4 265.7L166.3 268.8L165.4 270.2L162.2 270.8L140.7 272.3L123.2 273.8L121.2 271.6L121.1 268.2L119.9 264.2L117.6 261.4L112.5 257.5L106 253.8L104.7 254.8L102.3 254.2L102.6 252.6L99.8 249.3L95.9 250L89.2 247.6L88.2 245.6L83.7 243.2L78.5 243.3L74.2 242.2L68.8 242.7L65.9 240.6L66.6 236L65.6 235.3L66.2 232.1L61.9 229.7L61.8 226.4L60.2 226.2L57.5 223.4L55.6 222.8L54.8 221L48.6 214.3L45.7 212.3L45 207.1L46.3 207.5L47.4 204.4L45.1 201.6L42.3 201.9L38.5 199.4L37.2 197.3L37.5 195.3L35.6 192.8L35.6 188.5L38.6 188.5L37.4 182.5L36 183.2L35.8 186.1L32.6 186.7L28.7 184.5L28.1 180.7L25.6 177.6L22.3 175.8L20.6 173.6L15.8 169.4L16.6 168.2L14.3 162.8L15.3 159.7L13.9 155.2L9.7 150.8L5.6 148.3L4.8 145.3L8.9 138.2L9.7 135.8L8.9 133.9L10.4 129L9.1 124.6L7.3 123.5L8 120L23.9 119.9Z"/><path id="CO" d="M272.8 136.2L308.4 136.3L335.6 136.2L368.1 136.2L368.1 152.5L368.3 201.3L352.7 201.2L331 201.3L289.9 201.3L280.9 201.2L254.5 201.2L254.5 182.3L254.3 180.5L254.4 166.7L254.4 136.3L272.8 136.2Z"/><path id="CT" d="M839.3 119.3L859.7 119.6L859.7 129.5L858.7 131L857.3 130.7L850.2 132L841.7 131.6L838.1 133.8L834.2 134.6L829.5 136.4L828.4 134.6L832.4 132.8L831.2 131.4L832.3 119.2L839.3 119.3Z"/><path id="DE" d="M801 155.7L799.5 157.6L797.8 158.7L798.1 161.3L800.5 163.7L801.1 167.7L804.6 171.9L806.2 172L806.9 177.6L796.4 177.5L794.9 157L797.7 155.2L801 155.7Z"/><path id="DC" d="M774.6 168.8L776.7 170.4L774.5 172.1L773.3 169.8L774.6 168.8Z"/><path id="FL" d="M637.1 298.8L645.1 298.7L647.4 303.4L669.6 304.5L690.4 305.7L691.2 309.2L693.2 309.1L693.9 305.8L693.3 302.8L694.8 301.5L698.5 302.9L703 303.5L704 310.5L706 318.4L710.7 328.8L717.9 340L716.9 340.8L717.2 345.9L720.2 351.7L725 363.4L725.9 367L725.9 370.8L724.1 384.2L722.6 384.5L721 388.6L721.5 390L718.4 393L717.1 392.3L714.1 393.5L708.9 394.3L707.4 392.6L708.1 390.1L704.5 382.9L701.6 381.5L699.2 382.5L697.2 378.5L696.7 375.2L693.3 371.6L692.5 369.2L693 365.7L691.1 365.1L691.6 367.1L689.9 367.6L684.7 358.8L682.7 356.6L687.6 350.1L684.4 350.5L682.2 352.5L680.1 349.3L683 340.4L683.5 333L681.5 331.2L680.9 328.8L677.8 328.3L674.1 324.4L671.2 322.8L671 320.4L669 319.5L667.3 316.8L661.1 313.3L655.6 314.1L655.9 316.6L654.1 316.1L647.4 319.1L640.1 319.9L640.3 318.1L638.6 315.9L630.2 311.1L624.1 309.1L618.7 308.5L614.2 308.9L604.3 310.4L606.7 308L605.4 306.7L606.1 304L602.4 300.9L602.9 298.8L637.1 298.8Z"/><path id="GA" d="M675.9 233.7L672.5 237.2L672.2 238.9L677.6 242.3L679.3 242.1L681.8 245.6L682.3 247.5L684.9 250.9L688.7 252.9L690.8 256L695.1 258.7L695 260.6L697.8 263.6L702.2 266.1L703.2 268.8L703.4 272.2L705.6 273.4L708.2 277.8L708.3 280.5L712.1 281.9L708.1 287.5L707.3 290.3L705.6 292.8L705.5 295.4L703.7 296.5L703 303.5L698.5 302.9L694.8 301.5L693.3 302.8L693.9 305.8L693.2 309.1L691.2 309.2L690.4 305.7L669.6 304.5L647.4 303.4L645.1 298.7L643.4 294.2L644.5 289.9L642.9 285.1L644.3 282.3L644.2 280.2L647 278.2L645.1 277.2L645.8 275.6L644.1 273L642.2 268.5L638.2 247.9L635.3 234L656.3 233.9L667.6 234L675.9 233.7Z"/><path id="HI" d="M232.2 565.7L230.7 566.2L230.7 568.1L229.6 570.4L230.4 571.1L231 572.2L230.6 572.9L230.7 573.6L232.4 572.8L234.3 572.1L235.4 571.2L235.4 570.4L237.2 569.1L236.1 568.1L234.2 567.6L232.9 566.8L232.2 565.7ZM226.5 578.2L227.2 577.4L228.1 577.7L230 576.8L229.7 575.9L227.7 575.5L227.2 576.7L226.2 576.9L225.8 577.5L226.5 578.2ZM224.1 579.3L223.5 578.6L222.1 578.6L222.6 579.3L224.1 579.3ZM218.3 582.2L218.9 580.8L218.6 580L217.3 579.8L216.5 581.5L217.2 581.5L218.3 582.2ZM209.2 585.4L209.9 585.3L210 583.8L209.3 583.2L207.4 583.9L207.6 584.9L209.2 585.4Z"/><path id="ID" d="M140.7 6.2L140.7 22.9L146 27.4L146 31.9L149.2 33.8L152.5 34.5L152.8 35.7L158.9 40L159.6 41.8L163.8 43.5L164 44.6L168.7 44.5L166.4 50.5L166 54.4L167.7 56.9L164.7 58.6L165.9 60.3L165.1 62.1L168.6 63.8L172.6 61.6L174.2 59.8L177.1 61.4L176.7 62.7L178.3 65.9L180.9 69.1L182.9 70.3L182.8 73.4L184.7 74.8L188 74.9L190.2 80.2L192.1 81.1L193.7 79.6L198.8 79.7L202.6 78.2L204.8 79L208.6 78.3L209.4 79.2L212.7 78.6L216.4 75.2L219 78L222 79.7L222 120L203.8 120.1L173.3 120.1L124.8 120L124.8 90.2L126.9 84.9L125.6 83.6L122.5 83.3L121.3 81.1L124.6 75.3L126.3 74.8L128 72.4L127.7 70.8L129.6 68.9L130.6 66L133.9 61.2L132.6 59L128.8 57.8L126.6 55.1L126.5 52.2L124.3 49.4L124.6 48.1L124.5 26.3L124.7 6.2L140.7 6.2Z"/><path id="IL" d="M553.6 111.7L583.6 112L599.7 112L599.1 115.1L601.6 118.7L604.2 124.7L604.1 163L602.3 166L604.4 169.4L604.6 172.3L602.6 174.6L602.1 176.7L599.1 180.2L597.3 180.5L597.7 182.5L596.5 183.3L595.5 187.2L596 188.2L593.9 190.5L595.4 193.4L588.7 194.9L588.1 196.6L589.6 198.7L587.6 200.1L581.6 197.6L579.7 197.7L577.2 200.6L578 201.5L575.4 201.3L571.8 196.7L573.1 195.6L571.8 192.5L571.8 190L566.5 186.5L564.8 186.9L563 184.8L558.2 181.5L558.3 178.9L561 174.7L560.6 173.2L562.2 171.2L559.9 170.1L556.3 169.4L554.4 170.9L553.2 169.9L552.1 164.6L546.7 161.1L541.7 156.9L539.7 151.9L539.5 148.6L540.9 146.3L541.2 143.4L545.7 141.6L546.2 139.1L548.3 137.5L548.6 134.7L545.9 132.3L547 129.5L553.3 128.7L558.4 126.6L558.9 124.1L561 123.1L561.7 120L561.2 117.9L557.6 116.3L557.1 114.6L553.6 111.7Z"/><path id="IN" d="M629.1 123.9L648.3 123.9L648.3 125L648.4 144.4L648.2 167L646.9 167.8L648.2 172.2L645.4 172.3L642.4 173.8L638.2 173.1L638.4 176.3L635.6 177.6L634.5 179.7L631.7 180.5L630.2 184.6L628.3 185.6L624.7 184.1L624 182.3L620.5 184.3L620.7 186.1L617.1 186.7L616 185.1L611.9 186.7L610.6 188.4L606.5 186L604.4 186.5L602.9 185.4L601.6 186.5L597.5 186.7L596 188.2L595.5 187.2L596.5 183.3L597.7 182.5L597.3 180.5L599.1 180.2L602.1 176.7L602.6 174.6L604.6 172.3L604.4 169.4L602.3 166L604.1 163L604.2 124.7L605.8 125.8L610.8 125.8L615.6 123.9L629.1 123.9Z"/><path id="IA" d="M541.7 95.6L544.2 95.6L544.4 98L546.8 99.6L544.8 101.5L545.4 105.2L546.6 107.8L552.4 109.6L553.6 111.7L557.1 114.6L557.6 116.3L561.2 117.9L561.7 120L561 123.1L558.9 124.1L558.4 126.6L553.3 128.7L547 129.5L545.9 132.3L548.6 134.7L548.3 137.5L546.2 139.1L545.7 141.6L541.2 143.4L540.9 146.3L539.1 145.8L535.8 142.5L534.2 142.6L511 143L488.7 143.2L470.3 142.9L468.4 140.8L469.3 136.6L467.7 133L467.8 128.9L464.9 127.4L464.5 125.2L465.4 123.3L464.4 120.4L462.2 119.3L459.2 112L456.2 108.5L457.6 106.1L458.2 102.9L459.4 101.7L457.4 100.1L457.9 97.3L457 95.9L459.1 95.6L541.7 95.6Z"/><path id="KS" d="M370.5 152.5L477.7 152.5L479.3 154L484.6 155.2L480.9 159.9L483 161.5L485.6 165.4L489 166.2L488.9 201.2L400 201.2L368.3 201.3L368.1 152.5L370.5 152.5Z"/><path id="KY" d="M663 172.5L666.7 174.7L669.3 173.5L675.4 174.8L677.2 173.2L679.5 172.7L680.2 175.4L682.1 175.9L684.3 178.1L683.8 183L685.8 186.1L688.4 188.5L689.2 190.4L692.3 192.2L694.4 192.5L688.2 196.9L682.2 199.3L682.2 200.5L679.8 201.6L679.7 203L676.5 203.6L675.5 205.4L666.8 207.7L652.6 207.8L640.5 207.3L637.3 207.4L619.3 206.8L598.9 207.2L595.3 206.5L595.6 209.4L575.4 209.2L573.4 209.4L574.3 207.4L576.7 208.1L578 201.5L577.2 200.6L579.7 197.7L581.6 197.6L587.6 200.1L589.6 198.7L588.1 196.6L588.7 194.9L595.4 193.4L593.9 190.5L596 188.2L597.5 186.7L601.6 186.5L602.9 185.4L604.4 186.5L606.5 186L610.6 188.4L611.9 186.7L616 185.1L617.1 186.7L620.7 186.1L620.5 184.3L624 182.3L624.7 184.1L628.3 185.6L630.2 184.6L631.7 180.5L634.5 179.7L635.6 177.6L638.4 176.3L638.2 173.1L642.4 173.8L645.4 172.3L648.2 172.2L646.9 167.8L648.2 167L654.4 167L657.7 170.4L657.9 171.9L663 172.5Z"/><path id="LA" d="M505.3 265.9L545 266.2L546.5 268.1L545.4 268.8L545.2 272.1L547.6 274.1L547.9 278.9L546 282.7L542.2 285L541.2 288.6L539.6 288.3L539.3 294.2L537.4 294.4L538.5 297.6L537.4 298.8L568.1 298.8L566.5 304.1L569.1 307.7L569.8 310.3L571.7 312L566.9 314.2L566.5 315.8L570.5 316.9L572.2 314.3L575.5 316.9L575.3 319L573.3 319.9L569.7 319.1L570.1 320.6L568.9 322.9L572 324.9L577 325.5L578.7 328L580.2 328.3L577.6 331.1L574.7 330.5L572.3 327.7L566.4 326.2L566.4 323.4L563.4 324.3L563.6 326.6L562.3 328.8L560.1 329.1L558.5 326.7L554.8 326.6L553.5 329.1L551 329.8L548.3 328.3L546.2 328.1L544.1 324.1L540.5 322.3L539 322.6L537.6 319.2L533.4 319.7L533.3 317.6L529.1 319.6L529.6 321.1L526.4 322.5L521.4 321.8L515.6 319.6L511.5 318.6L502.7 319.4L501.6 320L500.2 318.4L504 312.6L502.7 309.5L503.9 307.8L503.4 305.6L505 303.9L506.7 299.7L506.4 296.3L501.9 289.7L501.8 286.1L498.3 282.6L498.3 265.9L505.3 265.9Z"/><path id="ME" d="M877.5 102.8L875.5 101.6L875.8 100L873.2 98.2L872.2 76.8L871.4 66.3L878.4 64.1L877.2 62.9L879.9 60.4L882.7 59.3L882.1 58.3L884.7 56.8L883.9 53.9L885.5 49.7L888 48.2L889 43.7L901.5 31.2L904.5 31.8L904.6 34.8L906.8 35.9L912 34.1L915.3 34.1L917.6 32.9L922.2 35.5L924.8 37.6L925 55.9L924.7 60.3L930.3 61.4L929.5 63.3L930.9 65.1L929.7 66.7L932.1 69.1L935.1 68.6L938 74.4L934.6 77L932.7 76L931.1 77.8L928.8 77.3L928.5 78.9L925.5 78.7L920.7 82.1L919.5 79.7L917.8 79.6L918.6 82.1L914.9 83.4L914 81.3L912.2 82.4L908 82.4L907.9 80L905.4 80.5L905.9 82.2L903.6 85.8L904 86.8L901 88.7L898 88L896.2 90.1L893.7 90.3L891.7 92L889.2 91.7L888.4 89.9L884.8 92.7L885.8 94.5L883.1 95.1L882.9 96.6L879.9 98.5L877.5 102.8Z"/><path id="MD" d="M791.5 185.7L790.7 185.7L791.5 185.7ZM734.9 157L794.9 157L796.4 177.5L806.9 177.6L803.7 184.5L801.2 184.8L796.8 185.7L793.3 186.4L793.4 183.8L792.1 182.7L793.9 181.6L791.4 178.9L790.6 180L787.3 179.8L786.1 176.8L787.2 176.8L787.3 173L788.3 171.5L786.9 166.3L788.7 163.3L791.4 162.8L791.9 159.7L789.8 160L789.8 161.6L785.5 163.7L784.2 165.5L784 170.2L782.4 172.5L783.1 176.2L785.2 178.8L784.9 180.8L786.3 182.7L785.6 184L781.8 181.5L776.5 180.2L774.9 177.7L771.9 179.1L770.7 177.2L773.1 174.7L774.5 172.1L776.7 170.4L774.6 168.8L773.3 169.8L771.2 168.3L767.8 167.5L767.8 165.1L766 163.8L763.5 163.5L761.6 158.9L758.9 158.9L756.1 157.4L754.6 158.7L751.9 158.6L751.3 160.4L746.5 159.2L743.3 161.6L741.2 161.1L738 163.8L734.8 165.4L734.9 157Z"/><path id="MA" d="M874 105.5L875.6 105.8L876.3 108.7L875.5 111L873 113.1L872.9 115.6L876.4 116L878.6 118.5L878.2 120.6L880 121.1L880.2 123L884.7 124.6L890 123.1L888.8 125.3L881.1 127.3L878.2 127.4L876.5 125.8L873.9 126.3L873.8 127.4L870.7 128.2L869.5 125.2L867.4 123.5L866.5 119.7L864.1 119.7L859.7 119.9L839.3 119.3L832.3 119.2L831.9 118.5L835.9 107.9L849 108.1L867.9 108.7L869.7 107.2L874 105.5Z"/><path id="MI" d="M670.3 124.3L648.3 125L648.3 123.9L629.1 123.9L615.6 123.9L618.9 121.7L621.1 118.1L623.2 115.9L624.7 112.8L625.6 108.3L625.2 103.5L620.4 94.1L621.9 90.5L620.8 86.2L624.6 81.9L625.4 78.2L624.8 76.3L627.5 75.5L627.9 72.8L632 72.1L635.3 69.1L635 75L636.7 75.3L638.8 72.4L638.9 67.4L640.2 66.1L644.7 65.3L643.3 61.9L646.2 58.9L649.8 58.7L653.9 60.6L657.9 60.9L659.9 63.2L662.9 63.4L668 65.5L669.8 65.4L672.5 68.9L670.3 70.8L672.5 73.2L673.3 75.9L672.3 82L669 83.5L668.2 86.6L664.3 87.7L662.1 91.4L662.9 92.8L666.8 94.2L669.9 92.1L673.4 87.9L679 86.3L681.8 87.6L683.5 89.9L685.2 96.6L685.4 100L687.2 104.1L685.5 110L682.9 110.9L682.8 108.8L681 109.4L679 114.3L675.7 116.1L674.7 119.9L670.6 123L670.3 124.3ZM636.9 59.4L637.2 61.3L635.1 61.7L636 58.9L636.9 59.4ZM603.1 69.7L600.6 68L602.1 65.7L598.3 65.3L599.8 63.1L600 60.3L596.6 58.3L594.8 56.2L587.8 54.6L585.7 55.2L578.7 52.8L562 49.5L560.2 46.7L557.2 45.7L563.5 44.1L566.4 42.1L573.5 41.3L578.1 38.9L580.3 38.8L582 37.1L587.1 34.7L589.7 32.7L593.5 31.3L597.2 32.5L590.8 37.5L589.2 39.2L589.3 42.2L592.4 39.9L598.1 40.2L602.4 41.8L606.3 46.3L608.5 47.1L612.6 46.4L613.5 47.3L617.6 47.9L626.4 44.1L630.9 43.8L636.9 44L641 42.7L644.2 42.6L644.8 47.2L648 47.8L651.2 47.1L652.5 48.1L654.7 46.8L659.4 46.4L659.5 52.1L661.6 54.5L664.8 55.1L665.2 53.5L668.3 53.5L670 55.2L668.5 56.4L659.6 55.4L655.4 56.1L650.7 54.1L649.4 55.9L650 57.4L648 57L645 54.8L639.7 53.5L637 53.4L634.5 55.5L630.2 56.1L625.6 55.6L623.7 56.5L623.2 58.3L618.2 59.8L618.4 57.7L616.2 57.2L615.3 59.4L611.6 59.5L609.9 60.5L607.4 64.3L602.8 69.2ZM583.4 22.9L579.3 24.9L577.1 25.2L577.3 23.5L587.6 19.7L585.6 22.3L583.4 22.9Z"/><path id="MN" d="M531.2 43.5L530 42.8L526.7 44.1L526.7 53.8L525.7 54.7L521.1 56.1L517.3 59.5L517.1 61.9L518.9 62L521 64.1L519.1 66.6L519.5 69.3L518.3 75.3L522.6 78.2L526 78.5L527.7 80.3L532.6 82.1L533.4 84.2L538.1 86.9L540.7 87.6L543.8 91.1L543.3 93.7L544.2 95.6L541.7 95.6L459.1 95.6L459.1 66.4L455.4 64.5L452.5 61.4L457 57.9L457.4 56.1L456.7 49.6L454.8 47.9L453.4 44.3L453.7 40L453.1 39.2L452.5 28.8L449.3 23.3L448.1 20.2L447.6 13.6L448.6 11.4L446.5 6.2L480.2 6.2L480.2 0L483.4 0.2L485.6 1.4L487.7 9.9L489.4 10.9L494.7 11.1L495.4 11.9L501.6 12.3L502.3 14.1L507.6 13.6L507.6 12.9L511.8 12L515.5 12.4L519.6 13.7L520.8 15.4L523.2 15.2L525.4 18.9L526.5 17.4L530.6 16.6L531.3 18.2L536.1 19.2L536.1 20.6L538.5 21.8L543.4 21.2L546.3 19.6L550.4 18.6L551.8 21L554.5 20.5L557.8 21L561.7 20.6L566 22.7L570.2 22.3L569.8 23.2L564.4 25.3L556.8 26.9L552 28.6L544.9 32.8L541.9 35.3L537.3 38.3L530 42.2L531.2 43.5Z"/><path id="MS" d="M588.8 233.8L593.2 233.8L594.8 235.5L592.5 253.3L588.8 284.2L590 309L588.3 309.7L584.3 309.4L582.7 308.3L578.8 309L573.4 310.9L571.7 312L569.8 310.3L569.1 307.7L566.5 304.1L568.1 298.8L537.4 298.8L538.5 297.6L537.4 294.4L539.3 294.2L539.6 288.3L541.2 288.6L542.2 285L546 282.7L547.9 278.9L547.6 274.1L545.2 272.1L545.4 268.8L546.5 268.1L545 266.2L546.3 264L545.4 260.6L546.8 259.2L543.9 257.1L546.5 252.1L549.5 249.5L548.5 247.8L551.9 245.1L551.8 244L554.7 243.1L554.4 239.9L556.1 239.2L557.3 236.5L559.9 235.2L558.9 233.8L588.8 233.8Z"/><path id="MO" d="M534.2 142.6L535.8 142.5L539.1 145.8L540.9 146.3L539.5 148.6L539.7 151.9L541.7 156.9L546.7 161.1L552.1 164.6L553.2 169.9L554.4 170.9L556.3 169.4L559.9 170.1L562.2 171.2L560.6 173.2L561 174.7L558.3 178.9L558.2 181.5L563 184.8L564.8 186.9L566.5 186.5L571.8 190L571.8 192.5L573.1 195.6L571.8 196.7L575.4 201.3L578 201.5L576.7 208.1L574.3 207.4L573.4 209.4L572.3 209.4L571.4 209.4L571.5 213.4L568.3 217.5L557.8 217.5L560.4 214.5L562.9 212.5L561.5 209.4L491.3 209.3L488.9 209.3L488.9 201.2L489 166.2L485.6 165.4L483 161.5L480.9 159.9L484.6 155.2L479.3 154L477.7 152.5L473.7 148.2L470.3 142.9L488.7 143.2L511 143L534.2 142.6Z"/><path id="MT" d="M335.7 6.2L335.8 24.7L335.7 55.9L335.8 71.3L305.3 71.2L253.9 71.2L221.9 71.2L222 79.7L219 78L216.4 75.2L212.7 78.6L209.4 79.2L208.6 78.3L204.8 79L202.6 78.2L198.8 79.7L193.7 79.6L192.1 81.1L190.2 80.2L188 74.9L184.7 74.8L182.8 73.4L182.9 70.3L180.9 69.1L178.3 65.9L176.7 62.7L177.1 61.4L174.2 59.8L172.6 61.6L168.6 63.8L165.1 62.1L165.9 60.3L164.7 58.6L167.7 56.9L166 54.4L166.4 50.5L168.7 44.5L164 44.6L163.8 43.5L159.6 41.8L158.9 40L152.8 35.7L152.5 34.5L149.2 33.8L146 31.9L146 27.4L140.7 22.9L140.7 6.2L214.6 6.3L247.9 6.2L335.7 6.2Z"/><path id="NE" d="M347.4 103.7L375 103.8L425.8 103.8L426.4 104.6L434.7 107.5L436.7 105.9L439 106.3L446.7 106.3L455.2 109.3L456.3 111.6L459.2 112L462.2 119.3L464.4 120.4L465.4 123.3L464.5 125.2L464.9 127.4L467.8 128.9L467.7 133L469.3 136.6L468.4 140.8L470.3 142.9L473.7 148.2L477.7 152.5L370.5 152.5L368.1 152.5L368.1 136.2L335.6 136.2L335.6 103.7L347.4 103.7Z"/><path id="NV" d="M124.8 120L173.3 120.1L173.2 201.2L173.2 214.3L171.5 217.1L169.9 217.2L167.9 215.2L162 215.8L163 225.3L164.3 228.5L164.6 231.5L163.7 233.7L143.9 218L132.7 209.3L117.1 197.7L97.4 183.3L76.4 168.7L76.5 148.2L76.4 120.1L97.6 120.1L124.8 120Z"/><path id="NH" d="M871.4 66.3L872.2 76.8L873.2 98.2L875.8 100L875.5 101.6L877.5 102.8L875.6 105.8L874 105.5L869.7 107.2L867.9 108.7L849 108.1L847.6 106.9L847.8 104.5L849.2 103.6L849 101.3L850.3 94.4L853.1 91.2L854.5 87.6L856 86.2L855.9 82.2L861.3 80.7L864 78L862.5 75.3L864.7 72.6L864.5 71L866.8 66.8L870.6 67.3L871.4 66.3Z"/><path id="NJ" d="M820.1 133.9L825.5 136.3L823.6 141L820.9 142L819.5 144.5L823.9 145.8L824.3 147.6L822.3 156.4L817.3 162.9L814 164.7L811 168.8L809.5 166.2L804.8 164.8L799 161.3L798.7 158.9L799.5 157.6L801 155.7L805.3 154.3L805.6 153.1L810.6 150.4L811.4 149L806.7 145.7L806.6 143.6L804.5 143.1L804.3 141.2L806.8 138.4L805.5 136.7L809.6 133.3L810.5 131.5L812.6 130.4L820.1 133.9Z"/><path id="NM" d="M280.9 201.2L289.9 201.3L331 201.3L352.7 201.2L352.7 209.3L352 249.7L351.6 266.2L351.6 282.5L294 282.5L293.5 284.1L295.4 285.9L268.1 285.9L268.1 293.3L254.4 293.3L254.5 201.2L280.9 201.2Z"/><path id="NY" d="M834.6 71L834.8 74.4L833.9 77.4L835.4 80.4L835 83.5L833.1 86.8L834.5 91.2L833.6 92.6L836.2 95.2L835.7 106.4L835.9 107.9L831.9 118.5L832.3 119.2L831.2 131.4L832.4 132.8L828.4 134.6L829.5 136.4L836.5 137.8L837.9 136.8L843.9 136.8L846.9 136.3L851.9 133.7L852.2 135.5L854.8 136.3L848.8 138.7L836.3 142.3L831 143L827.6 142.8L825 143.6L823.6 141L825.5 136.3L820.1 133.9L812.6 130.4L811.9 129.2L809.4 129.1L806.5 126.4L806.8 124L804.9 122.1L803.6 122.2L801.9 120L730.3 120L730.3 115.9L740.3 111L741.9 108.8L745.1 107.2L743.8 104.5L742.5 103.9L741.5 99.5L751 97.6L759.5 97.7L762.9 98.2L766.5 99.9L768.8 99.2L775.9 99.3L780.1 98.2L784.7 95.2L787.6 95.1L787.7 90.7L789.2 88.1L785.6 86.3L786.4 84.3L792.9 81.5L795.3 79.1L803.1 73.7L810.5 70.9L821.5 71.4L834.6 71Z"/><path id="NC" d="M710.5 208.3L721.7 208.6L734.4 208.7L793.6 208.5L795.4 215L790.9 214.4L790.3 215.2L784.8 216.2L784 217.1L780.3 217.3L780.5 218.5L784.9 217.7L785.6 218.4L790.5 217.6L792.1 219.1L795 218.5L796.1 222.4L795.1 224.3L793.1 224.4L789 228.5L783.6 228.6L782.7 231.4L785 234.1L786.9 234.7L783.4 239.2L780.5 238.7L775.3 239.1L771.8 240.1L766.2 243.2L761.7 247.3L759.4 252.5L756 251.3L750.1 252.4L731.7 236.9L713.5 236.6L713.7 234.8L711.3 232L709.6 233L709.5 231.3L689.5 230.5L685 231.1L681.5 232.6L675.9 233.7L667.6 234L656.3 233.9L656.7 230.1L659.9 229.7L661.2 227L665.2 224.6L669.6 224.5L673.6 222L677.8 221.2L681.4 217.5L683.6 216.4L684 218L690.4 214.9L693.4 215.5L695.4 212.5L698.4 211.7L699.2 207.9L710.5 208.3Z"/><path id="ND" d="M446.5 6.2L448.6 11.4L447.6 13.6L448.1 20.2L449.3 23.3L452.5 28.8L453.1 39.2L453.7 40L453.4 44.3L454.8 47.9L456.7 49.6L457.4 56.1L335.7 55.9L335.8 24.7L335.7 6.2L446.5 6.2Z"/><path id="OH" d="M718 120.3L718 142.1L715.6 143L716.8 144.8L716.7 147.3L714.5 151.2L712.9 157.2L706.6 162.4L704.6 163.1L702.8 162.1L700.9 164.4L699.1 164.3L697 167.4L697.5 169.3L695.8 170.8L693.4 168.3L690.3 172.2L691.1 174.7L689.2 175.6L688.6 177.7L684.3 178.1L682.1 175.9L680.2 175.4L679.5 172.7L677.2 173.2L675.4 174.8L669.3 173.5L666.7 174.7L663 172.5L657.9 171.9L657.7 170.4L654.4 167L648.2 167L648.4 144.4L648.3 125L670.3 124.3L676.6 126.6L678.8 127.9L680.4 126.6L683.9 129.2L686.2 130L693.7 127.9L698.2 128.3L703 125.3L710 122.4L718 120.3Z"/><path id="OK" d="M400 201.2L488.9 201.2L488.9 209.3L492 227.3L491.1 255.9L484.9 254.1L483.2 252.2L479.1 250.6L478 252L473.8 251.9L472.9 251.1L469.1 252.7L467.5 251.8L464 252.6L460.8 255.1L459.6 253.6L456.2 252.5L452.6 252.5L451.5 250.6L447.4 254.3L446 252.2L444.2 252.8L442.8 251.5L438.9 250.3L436.1 252.4L434.8 250.2L432.5 249.9L431.2 248.1L428.1 247.4L426 248.9L424.7 247.6L421.5 247.8L417.9 246.3L414.6 246.5L413.5 243.4L408.3 243.2L406.4 243.8L402.7 240.6L401.5 240.8L401.5 209.3L372 209.3L352.7 209.3L352.7 201.2L368.3 201.3L400 201.2Z"/><path id="OR" d="M24.3 52.2L25.8 52L29.3 53.7L30.8 55.6L31.6 60.5L40 62.3L47.1 59.7L51.5 59.4L56.7 60.3L57.2 61.4L66.1 59.1L68.3 59.9L73.1 59.4L77.1 57.8L84.2 56.4L90.7 56.1L92.9 55L126.6 55.1L128.8 57.8L132.6 59L133.9 61.2L130.6 66L129.6 68.9L127.7 70.8L128 72.4L126.3 74.8L124.6 75.3L121.3 81.1L122.5 83.3L125.6 83.6L126.9 84.9L124.8 90.2L124.8 120L97.6 120.1L76.4 120.1L59.6 120.1L37.8 119.8L23.9 119.9L8 120L5.7 118.1L4.4 112.8L4.7 109.2L2.5 106.4L4.1 103.7L5.3 99.3L7.7 94.7L8.7 90.6L10.5 76.8L10.2 74.9L11.8 68.9L12.5 60.5L11.6 55.9L12.4 53.1L18.9 50.7L21.7 52.6L24.3 52.2Z"/><path id="PA" d="M730.3 115.9L730.3 120L801.9 120L803.6 122.2L804.9 122.1L806.8 124L806.5 126.4L809.4 129.1L811.9 129.2L812.6 130.4L810.5 131.5L809.6 133.3L805.5 136.7L806.8 138.4L804.3 141.2L804.5 143.1L806.6 143.6L806.7 145.7L811.4 149L810.6 150.4L805.6 153.1L805.3 154.3L801 155.7L797.7 155.2L794.9 157L734.9 157L718 157L718 142.1L718 120.3L721 119.4L730.3 115.6Z"/><path id="RI" d="M869.5 125.2L870.7 128.2L867.5 128.5L869.5 125.2ZM864.1 119.7L866.5 119.7L867.4 123.5L869 124.7L867.1 124.4L865.4 126.8L864.9 130.2L858.7 131L859.7 129.5L859.7 119.9L864.1 119.7Z"/><path id="SC" d="M681.5 232.6L685 231.1L689.5 230.5L709.5 231.3L709.6 233L711.3 232L713.7 234.8L713.5 236.6L731.7 236.9L750.1 252.4L747.3 253.2L743.7 255.9L740.3 260L739.6 263.4L736.9 266.1L733.2 266.1L732.4 268.1L728.6 270.2L726.5 272.5L723.1 273.5L719.4 276L719.1 277.1L715.7 278.5L712.1 281.9L708.3 280.5L708.2 277.8L705.6 273.4L703.4 272.2L703.2 268.8L702.2 266.1L697.8 263.6L695 260.6L695.1 258.7L690.8 256L688.7 252.9L684.9 250.9L682.3 247.5L681.8 245.6L679.3 242.1L677.6 242.3L672.2 238.9L672.5 237.2L675.9 233.7L681.5 232.6Z"/><path id="SD" d="M335.7 55.9L457.4 56.1L457 57.9L452.5 61.4L455.4 64.5L459.1 66.4L459.1 95.6L457 95.9L457.9 97.3L457.4 100.1L459.4 101.7L458.2 102.9L457.6 106.1L456.2 108.5L459.2 112L456.3 111.6L455.2 109.3L446.7 106.3L439 106.3L436.7 105.9L434.7 107.5L426.4 104.6L425.8 103.8L375 103.8L347.4 103.7L335.6 103.7L335.5 71.3L335.7 55.9Z"/><path id="TN" d="M595.6 209.4L595.3 206.5L598.9 207.2L619.3 206.8L637.3 207.4L640.5 207.3L652.6 207.8L666.5 208L699.2 207.9L698.4 211.7L695.4 212.5L693.4 215.5L690.4 214.9L684 218L683.6 216.4L681.4 217.5L677.8 221.2L673.6 222L669.6 224.5L665.2 224.6L661.2 227L659.9 229.7L656.7 230.1L656.3 233.9L635.3 234L606.9 233.7L593.2 233.8L588.8 233.8L558.9 233.8L560.5 233.3L562.1 230.5L561.8 226.6L564.9 223.9L565.4 221.4L567.8 220.5L568.3 217.5L571.5 213.4L571.4 209.4L572.3 209.4L573.4 209.4L575.4 209.2L595.6 209.4Z"/><path id="TX" d="M372 209.3L401.5 209.3L401.5 240.8L402.7 240.6L406.4 243.8L408.3 243.2L413.5 243.4L414.6 246.5L417.9 246.3L421.5 247.8L424.7 247.6L426 248.9L428.1 247.4L431.2 248.1L432.5 249.9L434.8 250.2L436.1 252.4L438.9 250.3L442.8 251.5L444.2 252.8L446 252.2L447.4 254.3L451.5 250.6L452.6 252.5L456.2 252.5L459.6 253.6L460.8 255.1L464 252.6L467.5 251.8L469.1 252.7L472.9 251.1L473.8 251.9L478 252L479.1 250.6L483.2 252.2L484.9 254.1L491.1 255.9L492.8 257.4L496 256.6L498.3 257.3L498.3 265.9L498.3 282.6L501.8 286.1L501.9 289.7L506.4 296.3L506.7 299.7L505 303.9L503.4 305.6L503.9 307.8L502.7 309.5L504 312.6L500.2 318.4L501.6 320L498.9 320.1L490.5 322.3L487.4 321.1L486.9 318.4L484.8 320.3L483.2 319.9L482.4 322.2L484.1 323.1L484.4 326.2L481.4 329.4L476.5 333.4L466.7 337.7L465.7 336.9L462.8 338L462.7 337L458.7 337.7L456.8 335.7L455.7 336.1L459.9 340.3L456.8 341.7L453.9 340.9L453.4 343.8L449.8 346.8L446 352.4L443.6 358.3L441.9 357.9L441.4 360L443.3 359.5L442.4 363.7L441.2 363.9L441.1 366.3L442.6 367.6L443 372.5L444.8 374.2L445.2 377.3L446.7 380.1L441.7 381.8L439.6 379.7L435.8 378.9L430.7 379L426.4 376.4L423.1 376.1L420.6 374L417.2 373.2L414.9 371.2L413.4 366.3L410.4 363.4L410.8 360.9L409.5 358.2L409.9 355.9L407.9 353.3L406.2 353L403.4 350.7L402.5 347.8L400.1 345.1L396.7 342.9L395 338L393.4 336.7L391.2 332.8L390.5 329.6L388.5 327.2L385 325.2L384.2 323.8L381 322.5L378.5 319L371.4 318.2L367.1 318.3L363.5 317.1L362.7 318.8L358.7 319.3L355.8 322.7L354 328.1L353 328.2L350.8 331.4L348.2 331.5L344.1 329L334.1 325L332.1 322.9L328.2 320.8L325.5 316.2L325.3 312L322.5 308.6L321.9 305.7L320.1 303.8L313.8 301.1L310.4 297.3L307.7 296L304.7 292.8L300.6 291.1L297.8 286.8L295.4 285.9L293.5 284.1L294 282.5L351.6 282.5L351.6 266.2L352 249.7L352.1 209.3L372 209.3Z"/><path id="UT" d="M203.8 120.1L222 120L222 136.3L254.4 136.3L254.4 166.7L254.3 180.5L254.5 182.3L254.5 201.2L230.9 201.1L173.2 201.2L173.3 120.1L203.8 120.1Z"/><path id="VT" d="M864.5 71L864.7 72.6L862.5 75.3L864 78L861.3 80.7L855.9 82.2L856 86.2L854.5 87.6L853.1 91.2L850.3 94.4L849 101.3L849.2 103.6L847.8 104.5L847.6 106.9L849 108.1L835.9 107.9L835.7 106.4L836.2 95.2L833.6 92.6L834.5 91.2L833.1 86.8L835 83.5L835.4 80.4L833.9 77.4L834.8 74.4L834.6 71L851.4 71.2L864.5 71Z"/><path id="VA" d="M801.2 184.8L803.7 184.5L801.6 187.2L799.4 188.2L798 192L794.6 198L791.9 199.3L791 197L792.4 192.1L796.8 185.7L801.2 184.8ZM753.3 161.2L761.7 166.6L763.5 163.5L766 163.8L767.8 165.1L767.8 167.5L771.2 168.3L773.3 169.8L774.5 172.1L773.1 174.7L771.2 175.4L769.9 177.7L770.6 179.4L775 178.9L775.8 181.5L781.5 182.5L783.1 184.6L787.6 186.8L785.6 191.3L787.4 194.9L785.2 196.6L784.9 198.6L787 199.9L784.8 201.8L781.4 199.3L780.6 200.2L783.5 202L791.5 202.5L793.6 208.5L734.4 208.7L721.7 208.6L710.5 208.3L699.2 207.9L666.8 207.7L675.5 205.4L676.5 203.6L679.7 203L679.8 201.6L682.2 200.5L682.2 199.3L688.2 196.9L694.4 192.5L694.2 193.8L696.4 196.6L699.2 197.9L701.2 197.8L704.3 195.7L706.5 197.4L710.7 196.5L718.1 193.4L718.7 194.4L721.6 192.9L721.7 190L723.4 187.4L726.5 185L727.7 182.1L730.9 179.1L732.2 175.3L734.9 177.5L737.6 178.3L739.3 176.9L742.8 171.1L744.8 172.6L752.4 166L753.3 161.2Z"/><path id="WA" d="M124.7 6.2L124.5 26.3L124.6 48.1L124.3 49.4L126.5 52.2L126.6 55.1L92.9 55L90.7 56.1L84.2 56.4L77.1 57.8L73.1 59.4L68.3 59.9L66.1 59.1L57.2 61.4L56.7 60.3L51.5 59.4L47.1 59.7L40 62.3L31.6 60.5L30.8 55.6L29.3 53.7L25.8 52L24.3 52.2L21.7 52.6L18.9 50.7L15.9 50.1L13.5 51.1L10.4 49.7L11 47.4L13.2 46.3L9.9 42.9L7.7 34.1L6.3 32.9L4.5 26.7L1.3 24.3L0 19.5L1.8 16.3L5.1 17.8L11.7 19.8L16.3 19.8L20.8 20.6L25.1 19.8L27.1 21.2L31 21.1L33.6 24.7L35.6 24.4L36 29.2L37.1 33.6L38.7 33.1L37.1 29.4L37.6 25.7L40.2 22L38.1 20.5L37.9 17.8L36.3 14.9L37.1 12.7L36 10.2L33.5 9.9L31.1 8L31.7 6.2L124.7 6.2ZM32.3 17.4L34.4 16.7L34.1 20L31.5 18.8L32.3 17.4ZM27.3 13L29.1 10.9L31.5 13.4L30.8 15.7L27.1 15L27.3 13Z"/><path id="WV" d="M718 142.1L718 157L734.9 157L734.8 165.4L738 163.8L741.2 161.1L743.3 161.6L746.5 159.2L751.3 160.4L751.9 158.6L754.6 158.7L756.1 157.4L758.9 158.9L761.6 158.9L763.5 163.5L761.7 166.6L753.3 161.2L752.4 166L744.8 172.6L742.8 171.1L739.3 176.9L737.6 178.3L734.9 177.5L732.2 175.3L730.9 179.1L727.7 182.1L726.5 185L723.4 187.4L721.7 190L721.6 192.9L718.7 194.4L718.1 193.4L710.7 196.5L706.5 197.4L704.3 195.7L701.2 197.8L699.2 197.9L696.4 196.6L694.2 193.8L694.4 192.5L692.3 192.2L689.2 190.4L688.4 188.5L685.8 186.1L683.8 183L684.3 178.1L688.6 177.7L689.2 175.6L691.1 174.7L690.3 172.2L693.4 168.3L695.8 170.8L697.5 169.3L697 167.4L699.1 164.3L700.9 164.4L702.8 162.1L704.6 163.1L706.6 162.4L712.9 157.2L714.5 151.2L716.7 147.3L716.8 144.8L715.6 143L718 142.1Z"/><path id="WI" d="M557.2 45.7L560.2 46.7L562 49.5L578.7 52.8L585.7 55.2L587.8 54.6L594.8 56.2L596.6 58.3L600 60.3L599.8 63.1L598.3 65.3L602.1 65.7L600.6 68L603.1 69.7L602.5 71.6L599.4 72L596.7 75.7L595.7 78.3L597.6 78.8L600.1 77.1L602.8 73.9L606.2 72.6L608.8 68.5L612.2 67.6L611.9 69.8L609.6 71.7L605.1 78.5L603.8 82.2L603.9 84.9L602.2 85.8L600.7 89.4L601.3 92.6L599.8 94.6L597.9 99.7L598.3 103.7L600.3 107.2L599.7 112L583.6 112L553.6 111.7L552.4 109.6L546.6 107.8L545.4 105.2L544.8 101.5L546.8 99.6L544.4 98L544.2 95.6L543.3 93.7L543.8 91.1L540.7 87.6L538.1 86.9L533.4 84.2L532.6 82.1L527.7 80.3L526 78.5L522.6 78.2L518.3 75.3L519.5 69.3L519.1 66.6L521 64.1L518.9 62L517.1 61.9L517.3 59.5L521.1 56.1L525.7 54.7L526.7 53.8L526.7 44.1L530 42.8L531.2 43.5L534.9 43.7L546.2 40.9L550.4 39.4L551.8 40.6L549.6 42.7L554.9 45.5L557.2 45.7Z"/><path id="WY" d="M253.9 71.2L305.3 71.2L335.5 71.3L335.6 103.7L335.6 136.2L308.4 136.3L272.8 136.2L254.4 136.3L222 136.3L222 120L222 79.7L221.9 71.2L253.9 71.2Z"/><path id="PR" d="M946.7 510.2L941.4 509.9L938.9 511.1L937.9 510.4L934.3 510.7L935.2 506.8L933.3 504.1L936.1 501.6L938.4 502L947.3 502L956.5 502.9L959.9 504L960 506.7L958.3 506.9L956.6 509.7L950.1 511.1L946.7 510.2Z"/></svg>